<?xml version="1.0" encoding="UTF-8"?>
<svg
  version="1.1"
  xmlns="http://www.w3.org/2000/svg"
  width="499"
  height="499"
  viewBox="0 0 499 499"
  preserveAspectRatio="xMidYMid meet"
>
<path d="M0 0 C1.49124618 -0.04169843 2.98207625 -0.10311145 4.47167969 -0.18457031 C16.69592613 -0.84135103 16.69592613 -0.84135103 20.5234375 2.39208984 C22.16595544 5.05724039 23.28310031 7.71239055 24.43139648 10.62475586 C25.60017842 12.92271428 26.78479842 15.21266174 27.98217773 17.49584961 C29.24796199 20.01210825 30.49474047 22.53770953 31.74389648 25.06225586 C32.41047745 26.40161312 33.07722716 27.7408864 33.74414062 29.08007812 C37.74095138 37.12289396 41.63602434 45.20788928 45.43505859 53.34619141 C47.87925155 58.55102077 50.52476671 63.61141443 53.27954102 68.65722656 C56.30554609 74.25910553 59.0255865 79.99353084 61.74389648 85.74975586 C65.37993602 93.44130494 69.14319721 101.04043793 73.11889648 108.56225586 C73.57216309 109.42012695 74.02542969 110.27799805 74.49243164 111.16186523 C75.37831997 112.83781803 76.2642245 114.51376226 77.15014648 116.18969727 C79.16973951 120.02800154 81.15668753 123.88183321 83.11889648 127.74975586 C83.45816162 128.40709717 83.79742676 129.06443848 84.14697266 129.74169922 C85.57737375 132.58089185 86.43139648 134.39774433 86.43139648 137.62475586 C100.80995315 137.54055168 115.18839947 137.44518331 129.56679821 137.33722878 C136.24421803 137.28728795 142.92162261 137.24108364 149.59912109 137.20288086 C156.05069572 137.16583967 162.50214282 137.11942975 168.95360756 137.06669235 C171.4073696 137.04824807 173.86115888 137.0331039 176.31496239 137.0214119 C209.7405774 136.94288211 209.7405774 136.94288211 238.60717773 121.54272461 C251.10901467 108.39839498 256.07494996 94.29765703 255.73999023 76.30834961 C254.77529099 64.79301554 251.18228715 53.20648981 242.71655273 44.95288086 C241.43139648 43.62475586 241.43139648 43.62475586 241.43139648 41.62475586 C240.75077148 41.39788086 240.07014648 41.17100586 239.36889648 40.93725586 C236.43139648 39.62475586 236.43139648 39.62475586 233.36889648 37.31225586 C218.15738819 26.11075302 198.73605358 26.45653687 180.72485352 26.51123047 C179.43533783 26.51108444 178.14582214 26.51093842 176.81723022 26.51078796 C173.33055268 26.51050473 169.84391057 26.5163237 166.35724115 26.52336192 C162.69510237 26.52967545 159.03296248 26.53020552 155.37081909 26.53138733 C148.45808081 26.53447731 141.54535861 26.54265879 134.63262737 26.55273682 C126.75337384 26.563971 118.87411949 26.56942669 110.99485993 26.57443225 C94.80702941 26.58484373 78.61921501 26.60239731 62.43139648 26.62475586 C60.79878819 23.58711497 59.17670541 20.54397262 57.55639648 17.49975586 C57.09620117 16.64381836 56.63600586 15.78788086 56.16186523 14.90600586 C53.85164056 10.55340864 51.79023215 6.38849008 50.43139648 1.62475586 C53.50525811 0.60013532 55.59208621 0.49902041 58.81152344 0.49777222 C59.92936722 0.49495239 61.047211 0.49213257 62.19892883 0.48922729 C63.42677597 0.49125153 64.65462311 0.49327576 65.91967773 0.49536133 C67.21298508 0.49360901 68.50629242 0.49185669 69.83879089 0.49005127 C73.39610729 0.48548125 76.95339475 0.48726759 80.51071167 0.49043036 C84.25771155 0.49296898 88.00470901 0.49061105 91.75170898 0.48904419 C98.07023559 0.48722149 104.38875055 0.4896258 110.70727539 0.49438477 C117.94076462 0.49977111 125.17422541 0.49810675 132.40771389 0.49255836 C138.65697943 0.48796174 144.90623658 0.48740978 151.15550327 0.48999703 C154.86918664 0.4915317 158.58285686 0.49183432 162.29653931 0.48846054 C176.65080475 0.47733516 190.99758702 0.54756893 205.34545898 1.02368164 C206.96575012 1.07233777 206.96575012 1.07233777 208.61877441 1.12197685 C227.26701416 1.8341476 243.94951874 7.15463982 259.43139648 17.62475586 C260.28088867 18.11588867 261.13038086 18.60702148 262.00561523 19.11303711 C264.41162057 20.61243174 266.25255704 22.17856269 268.24389648 24.18725586 C268.8484668 24.78666992 269.45303711 25.38608398 270.07592773 26.00366211 C271.43139648 27.62475586 271.43139648 27.62475586 271.43139648 29.62475586 C272.09139648 29.62475586 272.75139648 29.62475586 273.43139648 29.62475586 C273.43139648 30.28475586 273.43139648 30.94475586 273.43139648 31.62475586 C274.09139648 31.62475586 274.75139648 31.62475586 275.43139648 31.62475586 C289.33424718 50.82393063 292.92299417 72.75476733 289.7578125 95.98388672 C288.01477977 106.4147056 283.26582243 115.87311694 277.43139648 124.62475586 C276.77139648 124.62475586 276.11139648 124.62475586 275.43139648 124.62475586 C275.09108398 125.46006836 275.09108398 125.46006836 274.74389648 126.31225586 C273.05589612 129.28635173 270.96463132 131.34484451 268.43139648 133.62475586 C267.77139648 133.62475586 267.11139648 133.62475586 266.43139648 133.62475586 C266.43139648 134.28475586 266.43139648 134.94475586 266.43139648 135.62475586 C259.90374435 141.22813867 252.16643882 144.9964628 244.43139648 148.62475586 C248.98921803 150.79357433 253.4090692 152.68153091 258.30639648 153.93725586 C267.89820501 156.68839474 275.78868797 163.43848803 283.43139648 169.62475586 C284.26155273 170.26026367 285.09170898 170.89577148 285.94702148 171.55053711 C297.50162892 181.19754426 305.90332837 196.86125873 308.43139648 211.62475586 C310.18882481 241.48649319 310.18882481 241.48649319 304.43139648 254.62475586 C304.06916992 255.50131836 303.70694336 256.37788086 303.33374023 257.28100586 C298.33696451 268.25697423 289.61429336 280.89226206 279.43139648 287.62475586 C278.77139648 287.62475586 278.11139648 287.62475586 277.43139648 287.62475586 C277.43139648 288.28475586 277.43139648 288.94475586 277.43139648 289.62475586 C266.15718972 295.96926769 255.13654323 301.77022543 242.43139648 304.62475586 C241.69841843 304.79707733 240.96544037 304.9693988 240.21025085 305.14694214 C229.50520815 307.29203431 218.68625729 306.87503819 207.82202148 306.82006836 C205.64198945 306.8163321 203.46195571 306.81348803 201.28192139 306.81149292 C195.58068091 306.80390472 189.87954447 306.78429821 184.17834473 306.76208496 C178.34604295 306.74152216 172.51372416 306.73246901 166.68139648 306.72241211 C155.26468444 306.70104726 143.84804916 306.66697027 132.43139648 306.62475586 C131.79285537 305.37569311 131.1575987 304.12495103 130.52368164 302.87353516 C130.16956207 302.17721481 129.8154425 301.48089447 129.45059204 300.76347351 C128.4915279 298.75093784 127.69627793 296.74520666 126.95483398 294.64428711 C125.38278438 290.30268703 123.26699918 286.35763217 121.05639648 282.31225586 C116.75097016 274.2899788 112.73331571 266.1509338 108.80639648 257.93725586 C104.11039592 248.11543976 99.3445991 238.33943695 94.43139648 228.62475586 C87.56801574 215.05206277 80.98508595 201.34941616 74.43139648 187.62475586 C77.57978075 184.4763716 81.52877614 184.3354345 85.80639648 183.49975586 C87.15556152 183.23146973 87.15556152 183.23146973 88.53198242 182.95776367 C95.29513516 181.6828426 101.55267942 181.23031627 108.43139648 181.62475586 C115.93118589 194.83324202 122.7164421 208.26746125 129.18530273 222.0065918 C130.94250716 225.69864906 132.77224032 229.35181929 134.61889648 232.99975586 C137.28352879 238.26798811 139.82511705 243.58038274 142.30639648 248.93725586 C146.36738811 257.68659653 150.85615769 266.19702907 155.41333008 274.69628906 C156.44916376 276.65841142 157.44201731 278.63888745 158.43139648 280.62475586 C166.12567639 280.69488553 173.81992234 280.74788173 181.51445103 280.78019238 C185.08901482 280.79571557 188.66335679 280.81670266 192.23779297 280.85107422 C195.70026196 280.88415311 199.16252036 280.90170857 202.62513542 280.90938759 C204.56067234 280.91746532 206.4961269 280.94080259 208.43153381 280.96464539 C227.31674875 280.96815259 244.72275535 276.69510651 258.72436523 263.45678711 C270.29152902 251.19515946 273.18167267 236.55741371 272.71264648 220.18725586 C272.24519935 210.72924209 269.64778893 203.21882251 264.83374023 195.09741211 C263.45331019 192.66339478 262.41017521 190.2426377 261.43139648 187.62475586 C260.77139648 187.62475586 260.11139648 187.62475586 259.43139648 187.62475586 C257.80639648 186.24975586 257.80639648 186.24975586 256.43139648 184.62475586 C256.43139648 183.96475586 256.43139648 183.30475586 256.43139648 182.62475586 C255.88354492 182.36307617 255.33569336 182.10139648 254.77124023 181.83178711 C252.09295286 180.45016641 249.5644413 178.88527582 246.99389648 177.31225586 C225.28793938 164.5908158 201.80795375 164.30447731 177.36889648 164.35913086 C175.19954383 164.35777842 173.03019148 164.35583312 170.86083984 164.35333252 C166.34624301 164.35040844 161.8317261 164.35459038 157.31713867 164.36401367 C151.58556247 164.37540643 145.85417372 164.36883224 140.12260437 164.35686874 C135.65253333 164.34957611 131.18250534 164.3519717 126.71243286 164.35712433 C124.60132829 164.35844045 122.49021957 164.35688632 120.37911987 164.35216522 C87.14030718 164.29411032 56.3659064 169.6575009 26.43139648 184.62475586 C25.70436523 184.94702148 24.97733398 185.26928711 24.22827148 185.60131836 C20.88572886 187.10405811 17.87724239 188.94365184 14.91186523 191.08959961 C14.27837158 191.54423584 13.64487793 191.99887207 12.9921875 192.46728516 C11.71554104 193.39550648 10.44374631 194.33044278 9.17724609 195.27246094 C4.63374856 198.62475586 4.63374856 198.62475586 2.43139648 198.62475586 C2.43139648 199.28475586 2.43139648 199.94475586 2.43139648 200.62475586 C0.89233398 201.88647461 0.89233398 201.88647461 -1.19360352 203.31225586 C-4.85753669 205.9432717 -7.58673505 208.74871331 -10.34204102 212.30444336 C-10.74680664 212.74014648 -11.15157227 213.17584961 -11.56860352 213.62475586 C-12.22860352 213.62475586 -12.88860352 213.62475586 -13.56860352 213.62475586 C-13.81094727 214.1803418 -14.05329102 214.73592773 -14.30297852 215.30834961 C-15.83206042 218.10694704 -17.73103056 220.27660613 -19.81860352 222.68725586 C-24.2432123 228.02510389 -27.47817332 233.44389547 -30.56860352 239.62475586 C-31.05973633 240.52452148 -31.55086914 241.42428711 -32.05688477 242.35131836 C-36.68168544 251.02730102 -39.85069938 260.19656394 -42.56860352 269.62475586 C-42.76437988 270.29837158 -42.96015625 270.9719873 -43.16186523 271.66601562 C-44.9819572 278.74790289 -45.01434351 285.91193333 -45.19360352 293.18725586 C-45.37922852 299.83881836 -45.37922852 299.83881836 -45.56860352 306.62475586 C-57.11860352 306.62475586 -68.66860352 306.62475586 -80.56860352 306.62475586 C-81.15985373 274.50016104 -76.65357641 245.329941 -59.56860352 217.62475586 C-59.15819824 216.95460449 -58.74779297 216.28445313 -58.32495117 215.59399414 C-46.59635138 196.83817014 -30.49241788 180.99290808 -11.56860352 169.62475586 C-9.93394476 168.4295215 -8.30808372 167.22210938 -6.69360352 165.99975586 C4.76569804 158.04499798 17.87720254 153.59140851 30.99389648 149.18725586 C31.64805542 148.96588959 32.30221436 148.74452332 32.97619629 148.51644897 C39.77623065 146.229407 46.25138161 144.12273924 53.43139648 143.62475586 C52.87452148 142.60639648 52.31764648 141.58803711 51.74389648 140.53881836 C47.66189333 132.9958101 43.79040721 125.42950208 40.36889648 117.56225586 C35.53724645 106.46022435 30.11859612 95.71452069 24.36889648 85.06225586 C21.49613197 79.73364067 18.82324223 74.34721811 16.30200195 68.84057617 C14.42860635 64.7502761 12.50587793 60.68742615 10.54858398 56.63647461 C10.04496338 55.59297852 9.54134277 54.54948242 9.02246094 53.47436523 C8.01344698 51.38703913 7.00162107 49.30106969 5.98681641 47.21655273 C5.52637939 46.26200195 5.06594238 45.30745117 4.59155273 44.32397461 C3.9671228 43.03753052 3.9671228 43.03753052 3.33007812 41.72509766 C2.43139648 39.62475586 2.43139648 39.62475586 2.43139648 37.62475586 C1.77139648 37.62475586 1.11139648 37.62475586 0.43139648 37.62475586 C0.16584961 38.29893555 -0.09969727 38.97311523 -0.37329102 39.66772461 C-4.9148358 50.90285337 -10.03994699 61.80549954 -15.53930664 72.59838867 C-17.29593689 76.05665032 -19.02456045 79.52888475 -20.75610352 82.99975586 C-22.52301337 86.53826346 -24.2909949 90.07601137 -26.07641602 93.60522461 C-26.72223633 94.88333008 -26.72223633 94.88333008 -27.38110352 96.18725586 C-27.73817383 96.88979492 -28.09524414 97.59233398 -28.46313477 98.31616211 C-29.62469012 100.74188371 -30.67568484 103.20612374 -31.72705078 105.68115234 C-33.2857272 109.28098493 -34.95659359 112.82764787 -36.63110352 116.37475586 C-37.01741943 117.19314941 -37.40373535 118.01154297 -37.80175781 118.85473633 C-41.05697939 125.68307984 -44.52608611 132.38472063 -48.11767578 139.04174805 C-50.48096671 143.44520288 -52.61842788 147.88674227 -54.61474609 152.46801758 C-56.06107122 155.73825974 -57.64831461 158.93151994 -59.25610352 162.12475586 C-59.59496582 162.80199707 -59.93382813 163.47923828 -60.28295898 164.17700195 C-62.4693015 168.52077502 -64.73213558 172.81766427 -67.03686523 177.09960938 C-70.73933072 183.9817566 -74.04831266 190.87634895 -77.04907227 198.10131836 C-80.7639498 206.71525033 -85.14466048 215.03383821 -89.6237793 223.27148438 C-93.06951716 229.61094053 -96.10817039 236.00485071 -98.92651367 242.64648438 C-101.1816174 247.89714515 -103.7720423 252.89295009 -106.51342773 257.90332031 C-109.4659047 263.33471004 -112.10255761 268.88786502 -114.70678711 274.49291992 C-117.54439468 280.59888081 -120.53127204 286.61471699 -123.56860352 292.62475586 C-127.03360352 299.55475586 -127.03360352 299.55475586 -130.56860352 306.62475586 C-142.11860352 306.62475586 -153.66860352 306.62475586 -165.56860352 306.62475586 C-163.32263838 299.88686044 -163.32263838 299.88686044 -161.68579102 296.91772461 C-161.32727051 296.25756348 -160.96875 295.59740234 -160.59936523 294.91723633 C-160.02726318 293.875271 -160.02726318 293.875271 -159.44360352 292.81225586 C-154.15465946 283.00277361 -149.45925313 272.95360248 -144.83032227 262.82006836 C-141.80552721 256.22698752 -138.62874043 249.76481757 -135.19360352 243.37475586 C-130.30901976 234.28146878 -125.93379754 224.97561463 -121.56860352 215.62475586 C-116.32788119 204.42249988 -110.95731846 193.3465401 -105.11230469 182.44604492 C-102.15034405 176.8699008 -99.56363642 171.20727464 -97.10644531 165.39428711 C-94.91016033 160.25527574 -92.37077914 155.37675006 -89.68920898 150.47705078 C-86.53449711 144.67023445 -83.72308706 138.72210665 -80.92236328 132.73828125 C-78.56282195 127.70408727 -76.1399362 122.71113535 -73.63110352 117.74975586 C-70.49581491 111.54306755 -67.48278189 105.28397906 -64.50610352 98.99975586 C-60.62954464 90.8196527 -56.65058308 82.70464677 -52.56860352 74.62475586 C-51.25365398 72.00097916 -49.94234024 69.37538967 -48.63110352 66.74975586 C-46.65068697 62.78417697 -44.66862051 58.81956281 -42.67016602 54.86303711 C-38.21146976 46.01886928 -33.91479863 37.10378488 -29.65771484 28.16088867 C-25.7320778 19.92867171 -21.68679766 11.76204321 -17.56860352 3.62475586 C-17.23860352 2.96475586 -16.90860352 2.30475586 -16.56860352 1.62475586 C-11.2510011 -0.14777828 -5.56831142 0.1217017 0 0 Z " fill="#222222" transform="translate(177.568603515625,83.375244140625)"/>
<path d="M0 0 C1.18589057 3.69481551 0.62016701 5.64375081 -1.03125 9.18359375 C-2.50040362 11.93825679 -4.1974863 14.45161857 -6 17 C-6.33 16.34 -6.66 15.68 -7 15 C-5.92591043 12.39525962 -4.79954367 9.90033962 -3.5625 7.375 C-3.22412109 6.66859375 -2.88574219 5.9621875 -2.53710938 5.234375 C-1.69845121 3.48618616 -0.85012153 1.74264314 0 0 Z " fill="#5F5F5F" transform="translate(124,160)"/>
<path d="M0 0 C0 3.69942045 -0.85819127 4.40155392 -3.25 7.125 C-3.85328125 7.82882812 -4.4565625 8.53265625 -5.078125 9.2578125 C-7.10469267 11.09490433 -8.32969429 11.6100881 -11 12 C-7.49102731 7.81576108 -3.91939465 3.80411834 0 0 Z " fill="#626262" transform="translate(141,273)"/>
<path d="M0 0 C2.97 1.98 2.97 1.98 6 4 C3 6 3 6 0.8125 5.625 C0.214375 5.41875 -0.38375 5.2125 -1 5 C-1 2 -1 2 0 0 Z " fill="#3E3E3E" transform="translate(454,248)"/>
<path d="M0 0 C0.33 0 0.66 0 1 0 C0.73781251 4.4571874 0.42288711 6.51522698 -2.5625 9.9375 C-3.366875 10.618125 -4.17125 11.29875 -5 12 C-3.68938409 7.76570244 -2.05643741 3.92592596 0 0 Z " fill="#636363" transform="translate(40,331)"/>
<path d="M0 0 C0.33 0 0.66 0 1 0 C1.66 2.31 2.32 4.62 3 7 C1.824375 7.4640625 1.824375 7.4640625 0.625 7.9375 C-1.92330128 8.92875038 -1.92330128 8.92875038 -4 10 C-2.66666667 6.66666667 -1.33333333 3.33333333 0 0 Z " fill="#505050" transform="translate(156,95)"/>
<path d="M0 0 C0.66 0.99 1.32 1.98 2 3 C1 6 1 6 -1 7 C-2.13350534 9.01669827 -2.13350534 9.01669827 -3 11 C-3.33 10.34 -3.66 9.68 -4 9 C-3.22265625 6.8359375 -3.22265625 6.8359375 -2.0625 4.375 C-1.68222656 3.55773437 -1.30195313 2.74046875 -0.91015625 1.8984375 C-0.60980469 1.27195312 -0.30945313 0.64546875 0 0 Z " fill="#6D6D6D" transform="translate(149,109)"/>
<path d="M0 0 C0.33 0.66 0.66 1.32 1 2 C1.66 2 2.32 2 3 2 C2.34 3.32 1.68 4.64 1 6 C-0.32 5.34 -1.64 4.68 -3 4 C-2.01 2.68 -1.02 1.36 0 0 Z " fill="#343434" transform="translate(125,221)"/>
<path d="M0 0 C0.66 1.32 1.32 2.64 2 4 C-0.31 5.32 -2.62 6.64 -5 8 C-3.62845496 5.04590299 -2.01136276 2.55991624 0 0 Z " fill="#656565" transform="translate(424,195)"/>
<path d="M0 0 C0.99 0.33 1.98 0.66 3 1 C2.67 3.31 2.34 5.62 2 8 C-0.7839183 6.60804085 -0.97898997 4.84424221 -2 2 C-1.34 1.34 -0.68 0.68 0 0 Z " fill="#494949" transform="translate(296,354)"/>
</svg>
